<svg width="134" height="32" viewBox="0 0 134 32" fill="none" xmlns="http://www.w3.org/2000/svg">
<path d="M40.3 23L45.9 8.88H48.74L54.28 23H50.96L46.72 11.28H47.86L43.56 23H40.3ZM43.48 20.44V17.88H51.18V20.44H43.48ZM59.8425 23.22C58.8425 23.22 57.9358 23 57.1225 22.56C56.3092 22.12 55.6692 21.5133 55.2025 20.74C54.7358 19.9667 54.5025 19.1 54.5025 18.14C54.5025 17.1667 54.7358 16.3 55.2025 15.54C55.6825 14.7667 56.3292 14.16 57.1425 13.72C57.9558 13.28 58.8692 13.06 59.8825 13.06C60.6425 13.06 61.3358 13.1933 61.9625 13.46C62.6025 13.7133 63.1692 14.1 63.6625 14.62L61.7025 16.58C61.4758 16.3267 61.2092 16.14 60.9025 16.02C60.6092 15.9 60.2692 15.84 59.8825 15.84C59.4425 15.84 59.0492 15.94 58.7025 16.14C58.3692 16.3267 58.1025 16.5933 57.9025 16.94C57.7158 17.2733 57.6225 17.6667 57.6225 18.12C57.6225 18.5733 57.7158 18.9733 57.9025 19.32C58.1025 19.6667 58.3758 19.94 58.7225 20.14C59.0692 20.34 59.4558 20.44 59.8825 20.44C60.2825 20.44 60.6358 20.3733 60.9425 20.24C61.2625 20.0933 61.5358 19.8933 61.7625 19.64L63.7025 21.6C63.1958 22.1333 62.6225 22.54 61.9825 22.82C61.3425 23.0867 60.6292 23.22 59.8425 23.22ZM69.53 23.22C68.53 23.22 67.6233 23 66.81 22.56C65.9967 22.12 65.3567 21.5133 64.89 20.74C64.4233 19.9667 64.19 19.1 64.19 18.14C64.19 17.1667 64.4233 16.3 64.89 15.54C65.37 14.7667 66.0167 14.16 66.83 13.72C67.6433 13.28 68.5567 13.06 69.57 13.06C70.33 13.06 71.0233 13.1933 71.65 13.46C72.29 13.7133 72.8567 14.1 73.35 14.62L71.39 16.58C71.1633 16.3267 70.8967 16.14 70.59 16.02C70.2967 15.9 69.9567 15.84 69.57 15.84C69.13 15.84 68.7367 15.94 68.39 16.14C68.0567 16.3267 67.79 16.5933 67.59 16.94C67.4033 17.2733 67.31 17.6667 67.31 18.12C67.31 18.5733 67.4033 18.9733 67.59 19.32C67.79 19.6667 68.0633 19.94 68.41 20.14C68.7567 20.34 69.1433 20.44 69.57 20.44C69.97 20.44 70.3233 20.3733 70.63 20.24C70.95 20.0933 71.2233 19.8933 71.45 19.64L73.39 21.6C72.8833 22.1333 72.31 22.54 71.67 22.82C71.03 23.0867 70.3167 23.22 69.53 23.22ZM79.0719 23.22C78.1785 23.22 77.3852 23.04 76.6919 22.68C76.0119 22.3067 75.4785 21.8 75.0919 21.16C74.7052 20.5067 74.5119 19.76 74.5119 18.92V13.28H77.5719V18.88C77.5719 19.2133 77.6252 19.5 77.7319 19.74C77.8519 19.98 78.0252 20.1667 78.2519 20.3C78.4785 20.4333 78.7519 20.5 79.0719 20.5C79.5252 20.5 79.8852 20.36 80.1519 20.08C80.4185 19.7867 80.5519 19.3867 80.5519 18.88V13.28H83.6119V18.9C83.6119 19.7533 83.4185 20.5067 83.0319 21.16C82.6452 21.8 82.1119 22.3067 81.4319 22.68C80.7519 23.04 79.9652 23.22 79.0719 23.22ZM85.5331 23V8.48H88.5931V23H85.5331ZM94.808 23.2C93.9146 23.2 93.1146 22.98 92.408 22.54C91.7146 22.1 91.1613 21.5 90.748 20.74C90.348 19.98 90.148 19.1133 90.148 18.14C90.148 17.1667 90.348 16.3 90.748 15.54C91.1613 14.78 91.7146 14.18 92.408 13.74C93.1146 13.3 93.9146 13.08 94.808 13.08C95.4613 13.08 96.048 13.2067 96.568 13.46C97.1013 13.7133 97.5346 14.0667 97.868 14.52C98.2013 14.96 98.388 15.4667 98.428 16.04V20.24C98.388 20.8133 98.2013 21.3267 97.868 21.78C97.548 22.22 97.1213 22.5667 96.588 22.82C96.0546 23.0733 95.4613 23.2 94.808 23.2ZM95.428 20.44C96.0813 20.44 96.608 20.2267 97.008 19.8C97.408 19.36 97.608 18.8067 97.608 18.14C97.608 17.6867 97.5146 17.2867 97.328 16.94C97.1546 16.5933 96.9013 16.3267 96.568 16.14C96.248 15.94 95.8746 15.84 95.448 15.84C95.0213 15.84 94.6413 15.94 94.308 16.14C93.988 16.3267 93.728 16.5933 93.528 16.94C93.3413 17.2867 93.248 17.6867 93.248 18.14C93.248 18.58 93.3413 18.9733 93.528 19.32C93.7146 19.6667 93.9746 19.94 94.308 20.14C94.6413 20.34 95.0146 20.44 95.428 20.44ZM97.488 23V20.38L97.948 18.02L97.488 15.66V13.28H100.488V23H97.488ZM109.063 23V17.46C109.063 16.9533 108.903 16.5467 108.583 16.24C108.276 15.92 107.883 15.76 107.403 15.76C107.069 15.76 106.776 15.8333 106.523 15.98C106.269 16.1133 106.069 16.3133 105.923 16.58C105.776 16.8333 105.703 17.1267 105.703 17.46L104.523 16.88C104.523 16.12 104.689 15.4533 105.023 14.88C105.356 14.3067 105.816 13.8667 106.403 13.56C107.003 13.24 107.676 13.08 108.423 13.08C109.143 13.08 109.776 13.2533 110.323 13.6C110.883 13.9333 111.323 14.38 111.643 14.94C111.963 15.5 112.122 16.1133 112.122 16.78V23H109.063ZM102.643 23V13.28H105.703V23H102.643ZM118.788 23.22C117.788 23.22 116.881 23 116.068 22.56C115.254 22.12 114.614 21.5133 114.148 20.74C113.681 19.9667 113.448 19.1 113.448 18.14C113.448 17.1667 113.681 16.3 114.148 15.54C114.628 14.7667 115.274 14.16 116.088 13.72C116.901 13.28 117.814 13.06 118.828 13.06C119.588 13.06 120.281 13.1933 120.908 13.46C121.548 13.7133 122.114 14.1 122.608 14.62L120.648 16.58C120.421 16.3267 120.154 16.14 119.848 16.02C119.554 15.9 119.214 15.84 118.828 15.84C118.388 15.84 117.994 15.94 117.648 16.14C117.314 16.3267 117.048 16.5933 116.848 16.94C116.661 17.2733 116.568 17.6667 116.568 18.12C116.568 18.5733 116.661 18.9733 116.848 19.32C117.048 19.6667 117.321 19.94 117.668 20.14C118.014 20.34 118.401 20.44 118.828 20.44C119.228 20.44 119.581 20.3733 119.888 20.24C120.208 20.0933 120.481 19.8933 120.708 19.64L122.648 21.6C122.141 22.1333 121.568 22.54 120.928 22.82C120.288 23.0867 119.574 23.22 118.788 23.22ZM128.575 23.22C127.522 23.22 126.582 23.0067 125.755 22.58C124.942 22.14 124.302 21.5333 123.835 20.76C123.369 19.9867 123.135 19.1133 123.135 18.14C123.135 17.1667 123.362 16.3 123.815 15.54C124.282 14.7667 124.909 14.16 125.695 13.72C126.482 13.28 127.369 13.06 128.355 13.06C129.315 13.06 130.162 13.2667 130.895 13.68C131.629 14.0933 132.202 14.6667 132.615 15.4C133.042 16.1333 133.255 16.9733 133.255 17.92C133.255 18.0933 133.242 18.28 133.215 18.48C133.202 18.6667 133.169 18.8867 133.115 19.14L124.735 19.16V17.06L131.815 17.04L130.495 17.92C130.482 17.36 130.395 16.9 130.235 16.54C130.075 16.1667 129.835 15.8867 129.515 15.7C129.209 15.5 128.829 15.4 128.375 15.4C127.895 15.4 127.475 15.5133 127.115 15.74C126.769 15.9533 126.495 16.26 126.295 16.66C126.109 17.06 126.015 17.5467 126.015 18.12C126.015 18.6933 126.115 19.1867 126.315 19.6C126.529 20 126.822 20.3133 127.195 20.54C127.582 20.7533 128.035 20.86 128.555 20.86C129.035 20.86 129.469 20.78 129.855 20.62C130.242 20.4467 130.582 20.1933 130.875 19.86L132.555 21.54C132.075 22.1 131.495 22.52 130.815 22.8C130.135 23.08 129.389 23.22 128.575 23.22Z" fill="#007BFF"/>
<path fill-rule="evenodd" clip-rule="evenodd" d="M19.75 5C19.75 7.07107 18.0711 8.75 16 8.75C13.9289 8.75 12.25 7.07107 12.25 5C12.25 2.92893 13.9289 1.25 16 1.25C18.0711 1.25 19.75 2.92893 19.75 5ZM30.75 16C30.75 18.0711 29.0711 19.75 27 19.75C24.9289 19.75 23.25 18.0711 23.25 16C23.25 13.9289 24.9289 12.25 27 12.25C29.0711 12.25 30.75 13.9289 30.75 16ZM5 19.75C7.07107 19.75 8.75 18.0711 8.75 16C8.75 13.9289 7.07107 12.25 5 12.25C2.92893 12.25 1.25 13.9289 1.25 16C1.25 18.0711 2.92893 19.75 5 19.75ZM19.75 27C19.75 29.0711 18.0711 30.75 16 30.75C13.9289 30.75 12.25 29.0711 12.25 27C12.25 24.9289 13.9289 23.25 16 23.25C18.0711 23.25 19.75 24.9289 19.75 27ZM19.7164 16.5039C19.4922 18.1732 18.1698 19.4945 16.5 19.717V22.2538H15.5V19.717C13.8302 19.4945 12.5078 18.1732 12.2836 16.5039H9.75V15.5039H12.2825C12.5036 13.831 13.8276 12.5059 15.5 12.283V9.75391H16.5V12.283C18.1724 12.5059 19.4964 13.831 19.7175 15.5039H22.2521V16.5039H19.7164Z" fill="#007BFF"/>
</svg>
