<svg width="65" height="65" viewBox="0 0 65 65" fill="none" xmlns="http://www.w3.org/2000/svg">
<path fill-rule="evenodd" clip-rule="evenodd" d="M40.2079 10.2243C40.2079 14.3664 36.85 17.7243 32.7079 17.7243C28.5658 17.7243 25.2079 14.3664 25.2079 10.2243C25.2079 6.08217 28.5658 2.7243 32.7079 2.7243C36.85 2.7243 40.2079 6.08217 40.2079 10.2243ZM62.2079 32.2243C62.2079 36.3664 58.85 39.7243 54.7079 39.7243C50.5658 39.7243 47.2079 36.3664 47.2079 32.2243C47.2079 28.0822 50.5658 24.7243 54.7079 24.7243C58.85 24.7243 62.2079 28.0822 62.2079 32.2243ZM10.7079 39.7243C14.85 39.7243 18.2079 36.3664 18.2079 32.2243C18.2079 28.0822 14.85 24.7243 10.7079 24.7243C6.56575 24.7243 3.20789 28.0822 3.20789 32.2243C3.20789 36.3664 6.56575 39.7243 10.7079 39.7243ZM40.2079 54.2243C40.2079 58.3664 36.85 61.7243 32.7079 61.7243C28.5658 61.7243 25.2079 58.3664 25.2079 54.2243C25.2079 50.0822 28.5658 46.7243 32.7079 46.7243C36.85 46.7243 40.2079 50.0822 40.2079 54.2243ZM40.1408 33.2321C39.6924 36.5707 37.0475 39.2133 33.7079 39.6582V44.7319H31.7079V39.6582C28.3683 39.2133 25.7234 36.5707 25.275 33.2321H20.2079V31.2321H25.2729C25.7152 27.8862 28.3631 25.236 31.7079 24.7904V19.7321H33.7079V24.7904C37.0527 25.236 39.7006 27.8862 40.1428 31.2321H45.212V33.2321H40.1408Z" fill="#007BFF"/>
</svg>
